<svg width="18" height="16" viewBox="0 0 18 16" fill="none" xmlns="http://www.w3.org/2000/svg">
<path d="M4.92443 3.66124C4.77673 3.89501 4.57967 4.09363 4.34707 4.24317C4.11447 4.39271 3.85196 4.48955 3.57797 4.52688C3.26618 4.57119 2.95684 4.61878 2.64751 4.67047C1.78351 4.81406 1.16895 5.57467 1.16895 6.45016V13.3638C1.16895 13.8534 1.36345 14.323 1.70967 14.6692C2.05589 15.0155 2.52547 15.21 3.0151 15.21H15.3228C15.8124 15.21 16.282 15.0155 16.6282 14.6692C16.9744 14.323 17.1689 13.8534 17.1689 13.3638V6.45016C17.1689 5.57467 16.5536 4.81406 15.6904 4.67047C15.3808 4.61889 15.0706 4.57102 14.7599 4.52688C14.4861 4.48943 14.2237 4.39255 13.9913 4.24301C13.7588 4.09348 13.5619 3.89491 13.4143 3.66124L12.7398 2.58144C12.5883 2.33537 12.3798 2.12942 12.1319 1.98102C11.8839 1.83263 11.6039 1.74615 11.3154 1.72893C9.88546 1.65212 8.45243 1.65212 7.02248 1.72893C6.73404 1.74615 6.45399 1.83263 6.20604 1.98102C5.9581 2.12942 5.74955 2.33537 5.59807 2.58144L4.92443 3.66124Z" stroke="black" stroke-width="1.5" stroke-linecap="round" stroke-linejoin="round"/>
<path d="M12.8613 9.05611C12.8613 10.0354 12.4722 10.9745 11.7798 11.667C11.0874 12.3594 10.1482 12.7484 9.16895 12.7484C8.18968 12.7484 7.25053 12.3594 6.55809 11.667C5.86565 10.9745 5.47664 10.0354 5.47664 9.05611C5.47664 8.07685 5.86565 7.1377 6.55809 6.44525C7.25053 5.75281 8.18968 5.3638 9.16895 5.3638C10.1482 5.3638 11.0874 5.75281 11.7798 6.44525C12.4722 7.1377 12.8613 8.07685 12.8613 9.05611ZM14.7074 7.20996H14.714V7.21652H14.7074V7.20996Z" stroke="black" stroke-width="1.5" stroke-linecap="round" stroke-linejoin="round"/>
</svg>
